<svg width="57" height="32" viewBox="0 0 57 32" fill="none" xmlns="http://www.w3.org/2000/svg">
<path d="M22.2991 21.9914V24.9249C15.0208 23.8896 8.26244 22.6816 3.75686 18.195C0.152392 14.6057 5.1432 11.0624 8.08917 9.73944V8.5315C4.04569 9.6244 -2.24808 14.7437 0.810914 19.7481C4.69266 26.0984 16.7538 28.3762 22.2991 28.7213V32L30.4438 26.9957L22.2991 21.9914Z" fill="#212121"/>
<path d="M31.1854 28.8937C39.8499 28.5481 52.602 26.2005 56.3094 19.7481C59.0374 15 53.0746 9.6244 49.0311 8.5315V9.73944C51.9771 11.0624 57.4808 14.5712 53.3634 18.3676C48.6845 22.6816 41.0597 24.7524 31.1821 25.0975C31.1865 25.0739 31.1865 27.2912 31.1854 28.8937Z" fill="#212121"/>
<path d="M15.226 8.49491C16.372 8.70888 17.3103 9.20103 18.0409 9.97135C18.7715 10.7417 19.1368 11.7188 19.1368 12.9028C19.1368 14.3579 18.6354 15.5062 17.6327 16.3479C16.6299 17.1895 15.4122 17.6103 13.9797 17.6103C12.8336 17.6103 11.8165 17.3536 10.9284 16.84C10.0402 16.3122 9.40986 15.5562 9.0374 14.5719L10.7135 13.5876C11.1576 14.9713 12.2463 15.6632 13.9797 15.6632C14.9108 15.6632 15.6701 15.4206 16.2574 14.9356C16.8448 14.4506 17.1384 13.773 17.1384 12.9028C17.1384 12.0327 16.8448 11.3551 16.2574 10.8701C15.6701 10.3708 14.9108 10.1211 13.9797 10.1211H13.464L12.6689 8.90147L16.15 4.21536H9.46716V2.35375H18.4922V4.10837L15.226 8.49491Z" fill="#212121"/>
<path d="M25.7156 7.53201C27.2197 7.53201 28.4589 8.00276 29.433 8.94426C30.4072 9.8715 30.8942 11.0769 30.8942 12.5605C30.8942 14.0441 30.4072 15.2566 29.433 16.1981C28.4589 17.1396 27.2197 17.6103 25.7156 17.6103C24.1971 17.6103 22.9508 17.1396 21.9766 16.1981C21.0168 15.2566 20.5369 14.0441 20.5369 12.5605C20.5369 11.405 20.8378 10.4064 21.4394 9.5648L26.2743 2.35375H28.552L25.0065 7.5748C25.3216 7.54627 25.558 7.53201 25.7156 7.53201ZM23.3949 14.85C23.9965 15.4206 24.7701 15.7059 25.7156 15.7059C26.6611 15.7059 27.4275 15.4206 28.0148 14.85C28.6165 14.2652 28.9173 13.502 28.9173 12.5605C28.9173 11.619 28.6165 10.8629 28.0148 10.2923C27.4275 9.72171 26.6611 9.43641 25.7156 9.43641C24.7558 9.43641 23.9822 9.72171 23.3949 10.2923C22.8075 10.8629 22.5138 11.619 22.5138 12.5605C22.5138 13.502 22.8075 14.2652 23.3949 14.85Z" fill="#212121"/>
<path d="M42.5427 15.492C41.5256 16.9042 40.1002 17.6103 38.2665 17.6103C36.4329 17.6103 35.0075 16.9042 33.9904 15.492C32.9733 14.0797 32.4647 12.1967 32.4647 9.84297C32.4647 7.48921 32.9733 5.60621 33.9904 4.19396C35.0075 2.78171 36.4329 2.07558 38.2665 2.07558C40.1002 2.07558 41.5256 2.78171 42.5427 4.19396C43.5598 5.60621 44.0683 7.48921 44.0683 9.84297C44.0683 12.1967 43.5598 14.0797 42.5427 15.492ZM35.4516 14.1439C36.1105 15.1567 37.0489 15.6632 38.2665 15.6632C39.4842 15.6632 40.4225 15.1567 41.0815 14.1439C41.7548 13.1311 42.0914 11.6974 42.0914 9.84297C42.0914 7.98849 41.7548 6.55484 41.0815 5.54202C40.4225 4.51493 39.4842 4.00138 38.2665 4.00138C37.0489 4.00138 36.1105 4.50779 35.4516 5.52062C34.7926 6.53345 34.4631 7.97423 34.4631 9.84297C34.4631 11.6974 34.7926 13.1311 35.4516 14.1439Z" fill="#212121"/>
<path d="M48.1742 6.6333C47.2001 6.6333 46.3907 6.31234 45.7461 5.6704C45.1014 5.02847 44.7791 4.24389 44.7791 3.31665C44.7791 2.38942 45.1014 1.60483 45.7461 0.962899C46.3907 0.320966 47.2001 0 48.1742 0C49.1484 0 49.9578 0.320966 50.6024 0.962899C51.2471 1.60483 51.5694 2.38942 51.5694 3.31665C51.5694 4.24389 51.2471 5.02847 50.6024 5.6704C49.9721 6.31234 49.1627 6.6333 48.1742 6.6333ZM46.9494 4.53632C47.2646 4.86442 47.6728 5.02847 48.1742 5.02847C48.6756 5.02847 49.0839 4.86442 49.3991 4.53632C49.7142 4.20822 49.8718 3.80167 49.8718 3.31665C49.8718 2.83164 49.7142 2.42508 49.3991 2.09698C49.0839 1.76888 48.6756 1.60483 48.1742 1.60483C47.6728 1.60483 47.2646 1.76888 46.9494 2.09698C46.6343 2.42508 46.4767 2.83164 46.4767 3.31665C46.4767 3.80167 46.6343 4.20822 46.9494 4.53632Z" fill="#212121"/>
</svg>
