<svg width="32" height="32" viewBox="0 0 32 32" fill="none" xmlns="http://www.w3.org/2000/svg">
<path d="M23.5624 0C18.91 0 15.1249 3.78506 15.1249 8.4375C15.1249 9.88675 15.4957 11.3018 16.2009 12.5576L15.1731 15.6411C15.0608 15.9779 15.1484 16.3494 15.3996 16.6004C15.6516 16.8524 16.0233 16.9388 16.3589 16.8269L19.4423 15.7991C20.6981 16.5042 22.1132 16.875 23.5624 16.875C28.2149 16.875 31.9999 13.0899 31.9999 8.4375C31.9999 3.78506 28.2149 0 23.5624 0V0ZM23.5624 15C22.3171 15 21.1046 14.6481 20.0561 13.9824C19.8176 13.8309 19.5241 13.7954 19.2571 13.8844L17.5448 14.4552L18.1156 12.7429C18.2047 12.4754 18.1688 12.1819 18.0176 11.9439C17.3519 10.8953 16.9999 9.68287 16.9999 8.4375C16.9999 4.81894 19.9439 1.875 23.5624 1.875C27.181 1.875 30.1249 4.81894 30.1249 8.4375C30.1249 12.0561 27.181 15 23.5624 15ZM27.3124 7.5C26.7947 7.5 26.3749 7.91975 26.3749 8.4375C26.3749 8.95525 26.7947 9.375 27.3124 9.375C27.8302 9.375 28.2499 8.95525 28.2499 8.4375C28.2499 7.91975 27.8302 7.5 27.3124 7.5ZM25.4778 24.3036L20.7049 21.1216C19.5933 20.3805 18.1007 20.5283 17.1561 21.473L15.9003 22.7288C15.1631 22.6219 13.4112 22.1834 11.6138 20.3861C9.81644 18.5888 9.378 16.8369 9.27113 16.0997L10.5269 14.8439C11.4717 13.8992 11.6194 12.4067 10.8784 11.2951L7.69638 6.52212C7.22713 5.81825 6.47519 5.36675 5.63338 5.28344C4.79125 5.19988 3.96563 5.49525 3.3675 6.09344L1.37819 8.08269C0.43019 9.03062 -0.0692473 10.3252 0.00775272 11.6345C0.157753 14.1846 1.26225 19.3153 6.97344 25.0264C12.6846 30.7376 17.8154 31.8421 20.3654 31.9921C21.673 32.0691 22.9681 31.5707 23.9172 30.6217L25.9064 28.6324C26.5046 28.0342 26.7999 27.2083 26.7165 26.3666C26.6332 25.5247 26.1817 24.7728 25.4778 24.3036ZM24.5806 27.3066L22.5914 29.2959C22.0218 29.8654 21.2505 30.1661 20.4755 30.1204C18.1913 29.986 13.5719 28.9732 8.29925 23.7006C3.02663 18.428 2.01394 13.8086 1.8795 11.5244C1.83394 10.7493 2.13444 9.97813 2.70394 9.40856L4.69325 7.41925C5.11282 6.99969 5.80907 7.07138 6.13619 7.56213L9.31819 12.3351C9.56519 12.7056 9.51594 13.2031 9.20107 13.518L7.63632 15.0828C7.4605 15.2586 7.36169 15.497 7.36169 15.7457C7.36169 15.8698 7.39494 18.8189 10.2879 21.7119C13.1809 24.6049 16.13 24.6381 16.2541 24.6381C16.5028 24.6381 16.7412 24.5393 16.9171 24.3635L18.4818 22.7987C18.7966 22.4838 19.2941 22.4346 19.6648 22.6816L24.4377 25.8636C24.9305 26.1921 24.9986 26.8887 24.5806 27.3066ZM23.5624 7.5C23.0447 7.5 22.6249 7.91975 22.6249 8.4375C22.6249 8.95525 23.0447 9.375 23.5624 9.375C24.0802 9.375 24.4999 8.95525 24.4999 8.4375C24.4999 7.91975 24.0802 7.5 23.5624 7.5ZM19.8124 7.5C19.2947 7.5 18.8749 7.91975 18.8749 8.4375C18.8749 8.95525 19.2947 9.375 19.8124 9.375C20.3302 9.375 20.7499 8.95525 20.7499 8.4375C20.7499 7.91975 20.3302 7.5 19.8124 7.5Z" fill="#F0CC13"/>
</svg>
