<svg width="41" height="53" viewBox="0 0 41 53" fill="none" xmlns="http://www.w3.org/2000/svg">
<path d="M10.5 9H5.5C3.29086 9 1.5 10.7909 1.5 13V47.5C1.5 49.7091 3.29086 51.5 5.5 51.5H35.5C37.7091 51.5 39.5 49.7091 39.5 47.5V13C39.5 10.7909 37.7091 9 35.5 9H30M10.5 9V7.5C10.5 6.39543 11.3954 5.5 12.5 5.5H15M10.5 9V12C10.5 13.1046 11.3954 14 12.5 14H28C29.1046 14 30 13.1046 30 12V9M30 9V7.5C30 6.39543 29.1046 5.5 28 5.5H25.5M15 5.5C15.3333 4.16667 16.5 1.5 20.5 1.5C24 1.5 25.1667 4.16667 25.5 5.5M15 5.5H25.5M7 21.5L10 24.5L15 19.5M7 31L10 34L15 29M7 41L10 44L15 39M19 22.5H34M19 32.5H34M19 42.5H34" stroke="#F0CC13" stroke-width="1.5"/>
</svg>
