<svg width="61" height="53" viewBox="0 0 61 53" fill="none" xmlns="http://www.w3.org/2000/svg">
<path d="M8 31C6.27524 26.2569 3.68284 24.8605 2.14684 24.2453C1.75988 24.0903 1.5 23.7238 1.5 23.307V2.03876C1.5 1.3151 2.24485 0.831045 2.90614 1.12495L15 6.5C15.8333 7 18.3 7.7 21.5 6.5C24.4692 5.38657 29.3668 6.4771 32.7164 7.72663M8 31L32 14C33.1667 14.6667 34.7 16.4 35.5 18C36.5 20 37 21.9269 38 23C39.5 25.5 42.5 24.5 43 23C43.5 21.5 42.5 20 42 18C41.7831 17.1323 42.5 15.5 41.5 13.5C40.5 11.5 38 10.5 35.5 9C34.8557 8.61343 33.8794 8.16045 32.7164 7.72663M8 31C6 32.5 3.5 34.5 5.5 37C6.7 38.5 9.16667 37.8333 10 37.5M10 37.5L26 27M10 37.5C8.5 40.5 10.721 44.7078 16 42.5M16 42.5L29.5 33M16 42.5C14.5 45.5 17.2909 49.2922 21 47C24.7091 44.7078 24.7091 44.7078 24.7091 44.7078M32 39.5L24.7091 44.7078M24.7091 44.7078C22.5 47.5 25.5 51.5 29.5 49M29.5 49C29.1667 48.3333 28.9 46.7 30.5 45.5C32.1 44.3 33.5 45 34.5 46M29.5 49C30 50 31.5 53 34.5 51C36.9 49.4 35.5 47 34.5 46M34.5 46C34 45.1667 33.5 43.1 35.5 41.5C37.2157 40.1274 39.125 41.5 40 42.5M34.5 46C35.5 47.5 38.1 50.1 40.5 48.5C42.9 46.9 41.1667 43.8333 40 42.5M40 42.5C39.3333 41.3333 38.6 38.7 41 37.5C43.4 36.3 45.3333 38.3333 46 39.5M40 42.5C41.5 44.5 43.5 47 46 45C48 43.4 46.6667 40.6667 46 39.5M46 39.5C44.6667 37.8333 42.4223 33.5388 45.5 32C47.5 31 49 32 50 33.5M46 39.5C46.5794 40.5759 49.0232 43.4846 52 41.5C55 39.5 51 35 50 33.5M50 33.5C51.5806 31.2871 55.11 26.6158 58.8821 24.7747C59.2496 24.5953 59.5 24.2319 59.5 23.823V3.42992C59.5 2.6191 58.5821 2.13846 57.9053 2.58496C54.8833 4.57866 50.509 7.16366 48 8C45.3167 8.89443 36.6443 7.98442 32.7164 7.72663" stroke="#F0CC13" stroke-width="1.5"/>
</svg>
