<svg width="54" height="54" viewBox="0 0 54 54" fill="none" xmlns="http://www.w3.org/2000/svg">
<path d="M22 19H34.5M39 17.5L49.5 5M37 21.5V30.5M42.5 34.5L48.5 32.5M37.5 41.5V48.5M31.5 36H19.5M18 38.5L21.5 45.5M16.5 5.5V13.5M14 38L4.5 49M5 26L11.5 21.5M19 3.5C19 4.88071 17.8807 6 16.5 6C15.1193 6 14 4.88071 14 3.5C14 2.11929 15.1193 1 16.5 1C17.8807 1 19 2.11929 19 3.5ZM53 3.5C53 4.88071 51.8807 6 50.5 6C49.1193 6 48 4.88071 48 3.5C48 2.11929 49.1193 1 50.5 1C51.8807 1 53 2.11929 53 3.5ZM53 31.5C53 32.8807 51.8807 34 50.5 34C49.1193 34 48 32.8807 48 31.5C48 30.1193 49.1193 29 50.5 29C51.8807 29 53 30.1193 53 31.5ZM6 27.5C6 28.8807 4.88071 30 3.5 30C2.11929 30 1 28.8807 1 27.5C1 26.1193 2.11929 25 3.5 25C4.88071 25 6 26.1193 6 27.5ZM40 50.5C40 51.8807 38.8807 53 37.5 53C36.1193 53 35 51.8807 35 50.5C35 49.1193 36.1193 48 37.5 48C38.8807 48 40 49.1193 40 50.5ZM25 47.5C25 48.8807 23.8807 50 22.5 50C21.1193 50 20 48.8807 20 47.5C20 46.1193 21.1193 45 22.5 45C23.8807 45 25 46.1193 25 47.5ZM6 50.5C6 51.8807 4.88071 53 3.5 53C2.11929 53 1 51.8807 1 50.5C1 49.1193 2.11929 48 3.5 48C4.88071 48 6 49.1193 6 50.5ZM20 36C20 37.933 18.433 39.5 16.5 39.5C14.567 39.5 13 37.933 13 36C13 34.067 14.567 32.5 16.5 32.5C18.433 32.5 20 34.067 20 36ZM40 19C40 20.6569 38.6569 22 37 22C35.3431 22 34 20.6569 34 19C34 17.3431 35.3431 16 37 16C38.6569 16 40 17.3431 40 19ZM43 36C43 39.3137 40.3137 42 37 42C33.6863 42 31 39.3137 31 36C31 32.6863 33.6863 30 37 30C40.3137 30 43 32.6863 43 36ZM22.5 19C22.5 22.3137 19.8137 25 16.5 25C13.1863 25 10.5 22.3137 10.5 19C10.5 15.6863 13.1863 13 16.5 13C19.8137 13 22.5 15.6863 22.5 19Z" stroke="#F0CC13" stroke-width="1.5"/>
</svg>
