<svg width="22" height="16" viewBox="0 0 22 16" fill="none" xmlns="http://www.w3.org/2000/svg">
<path d="M21.1425 1.37347C20.3484 0.397907 18.8822 0 16.0821 0H5.9177C3.05353 0 1.56247 0.423618 0.771332 1.46224C0 2.47483 0 3.96691 0 6.03202V9.96802C0 13.9687 0.915191 16 5.9177 16H16.0821C18.5104 16 19.8559 15.6488 20.7264 14.7879C21.6191 13.9051 22 12.4636 22 9.96802V6.03202C22 3.85421 21.9403 2.35334 21.1425 1.37347ZM14.1241 8.5434L9.50847 11.0363C9.4053 11.092 9.29242 11.1196 9.17976 11.1196C9.05214 11.1196 8.92482 11.0842 8.81207 11.0136C8.59972 10.8807 8.47009 10.6428 8.47009 10.3863V5.41653C8.47009 5.16045 8.59938 4.9228 8.8113 4.78976C9.02327 4.65673 9.28692 4.64763 9.50684 4.7657L14.1225 7.24248C14.3573 7.36846 14.5047 7.61899 14.5051 7.89234C14.5054 8.16596 14.3586 8.41685 14.1241 8.5434Z" fill="#F0CC13"/>
</svg>
