<svg width="438" height="438" viewBox="0 0 438 438" fill="none" xmlns="http://www.w3.org/2000/svg">
<circle cx="222" cy="221" r="169" stroke="#F6F7FE" stroke-width="72"/>
<mask id="path-2-inside-1_1_260" fill="white">
<path d="M222 16C275.894 16 327.62 37.223 365.983 75.0756C404.346 112.928 426.26 164.365 426.982 218.254L355.009 219.218C354.54 184.251 340.321 150.874 315.428 126.312C290.535 101.751 256.971 87.9795 222 87.9795V16Z"/>
</mask>
<path d="M222 16C275.894 16 327.62 37.223 365.983 75.0756C404.346 112.928 426.26 164.365 426.982 218.254L355.009 219.218C354.54 184.251 340.321 150.874 315.428 126.312C290.535 101.751 256.971 87.9795 222 87.9795V16Z" stroke="#F0CC13" stroke-width="144" mask="url(#path-2-inside-1_1_260)"/>
<mask id="path-3-inside-2_1_260" fill="white">
<path d="M437.999 218.207C438.157 261.863 425.264 304.57 400.975 340.845C376.686 377.12 342.11 405.309 301.685 421.791L270.582 345.51C295.801 335.227 317.371 317.642 332.524 295.012C347.676 272.382 355.719 245.74 355.621 218.505L437.999 218.207Z"/>
</mask>
<path d="M437.999 218.207C438.157 261.863 425.264 304.57 400.975 340.845C376.686 377.12 342.11 405.309 301.685 421.791L270.582 345.51C295.801 335.227 317.371 317.642 332.524 295.012C347.676 272.382 355.719 245.74 355.621 218.505L437.999 218.207Z" stroke="#00A3FF" stroke-width="144" mask="url(#path-3-inside-2_1_260)"/>
<mask id="path-4-inside-3_1_260" fill="white">
<path d="M297.607 411.548C260.55 426.252 220.01 429.831 180.951 421.848C141.891 413.865 106.007 394.666 77.6911 366.602L128.361 315.478C146.734 333.689 170.019 346.146 195.364 351.326C220.709 356.506 247.014 354.184 271.06 344.643L297.607 411.548Z"/>
</mask>
<path d="M297.607 411.548C260.55 426.252 220.01 429.831 180.951 421.848C141.891 413.865 106.007 394.666 77.6911 366.602L128.361 315.478C146.734 333.689 170.019 346.146 195.364 351.326C220.709 356.506 247.014 354.184 271.06 344.643L297.607 411.548Z" stroke="#3CCE9C" stroke-width="144" mask="url(#path-4-inside-3_1_260)"/>
<mask id="path-5-inside-4_1_260" fill="white">
<path d="M77.6869 366.598C50.6843 339.833 31.6565 306.087 22.7302 269.131C13.8039 232.174 15.3307 193.463 27.1401 157.324L95.5592 179.682C87.8963 203.132 86.9056 228.25 92.6977 252.231C98.4898 276.211 110.837 298.109 128.358 315.476L77.6869 366.598Z"/>
</mask>
<path d="M77.6869 366.598C50.6843 339.833 31.6565 306.087 22.7302 269.131C13.8039 232.174 15.3307 193.463 27.1401 157.324L95.5592 179.682C87.8963 203.132 86.9056 228.25 92.6977 252.231C98.4898 276.211 110.837 298.109 128.358 315.476L77.6869 366.598Z" stroke="#F73A38" stroke-width="144" mask="url(#path-5-inside-4_1_260)"/>
<mask id="path-6-inside-5_1_260" fill="white">
<path d="M27.0967 157.457C39.1331 120.538 61.4077 87.7971 91.3279 63.0449L137.209 118.506C117.795 134.567 103.341 155.812 95.531 179.768L27.0967 157.457Z"/>
</mask>
<path d="M27.0967 157.457C39.1331 120.538 61.4077 87.7971 91.3279 63.0449L137.209 118.506C117.795 134.567 103.341 155.812 95.531 179.768L27.0967 157.457Z" stroke="#565AE9" stroke-width="144" mask="url(#path-6-inside-5_1_260)"/>
<mask id="path-7-inside-6_1_260" fill="white">
<path d="M91.2672 63.0952C114.53 43.8355 141.761 29.9536 171.012 22.4421L188.915 92.1596C169.934 97.0337 152.265 106.041 137.17 118.539L91.2672 63.0952Z"/>
</mask>
<path d="M91.2672 63.0952C114.53 43.8355 141.761 29.9536 171.012 22.4421L188.915 92.1596C169.934 97.0337 152.265 106.041 137.17 118.539L91.2672 63.0952Z" stroke="#48CFE1" stroke-width="144" mask="url(#path-7-inside-6_1_260)"/>
<mask id="path-8-inside-7_1_260" fill="white">
<path d="M170.951 22.4577C187.646 18.1654 204.814 15.9957 222.052 16L222.033 87.9795C210.849 87.9767 199.708 89.3845 188.876 92.1698L170.951 22.4577Z"/>
</mask>
<path d="M170.951 22.4577C187.646 18.1654 204.814 15.9957 222.052 16L222.033 87.9795C210.849 87.9767 199.708 89.3845 188.876 92.1698L170.951 22.4577Z" stroke="#212121" stroke-width="144" mask="url(#path-8-inside-7_1_260)"/>
<path d="M324.648 113V111.632L329.094 107.096C330.282 105.908 330.876 104.888 330.876 104.036C330.876 103.328 330.66 102.776 330.228 102.38C329.796 101.984 329.268 101.786 328.644 101.786C327.456 101.786 326.592 102.35 326.052 103.478L324.648 102.65C325.044 101.834 325.59 101.216 326.286 100.796C326.994 100.376 327.774 100.166 328.626 100.166C329.682 100.166 330.6 100.514 331.38 101.21C332.16 101.906 332.55 102.842 332.55 104.018C332.55 105.29 331.8 106.676 330.3 108.176L327.078 111.38H332.784V113H324.648ZM343.238 109.04V110.606H341.708V113H340.034V110.606H333.608V109.04L338.126 100.4H339.926L335.408 109.04H340.034V105.476H341.708V109.04H343.238ZM345.795 113.198C345.471 113.198 345.195 113.084 344.967 112.856C344.739 112.628 344.625 112.352 344.625 112.028C344.625 111.704 344.739 111.428 344.967 111.2C345.195 110.972 345.471 110.858 345.795 110.858C346.131 110.858 346.407 110.972 346.623 111.2C346.851 111.428 346.965 111.704 346.965 112.028C346.965 112.352 346.851 112.628 346.623 112.856C346.407 113.084 346.131 113.198 345.795 113.198ZM355.338 106.484C355.95 106.796 356.43 107.216 356.778 107.744C357.126 108.272 357.3 108.872 357.3 109.544C357.3 110.696 356.898 111.602 356.094 112.262C355.29 112.91 354.252 113.234 352.98 113.234C351.72 113.234 350.688 112.91 349.884 112.262C349.08 111.602 348.678 110.696 348.678 109.544C348.678 108.872 348.852 108.272 349.2 107.744C349.548 107.216 350.028 106.796 350.64 106.484C349.608 105.836 349.092 104.918 349.092 103.73C349.092 102.59 349.47 101.714 350.226 101.102C350.994 100.478 351.912 100.166 352.98 100.166C354.06 100.166 354.978 100.478 355.734 101.102C356.502 101.714 356.886 102.59 356.886 103.73C356.886 104.918 356.37 105.836 355.338 106.484ZM352.98 101.768C352.344 101.768 351.81 101.936 351.378 102.272C350.958 102.608 350.748 103.106 350.748 103.766C350.748 104.402 350.964 104.9 351.396 105.26C351.828 105.608 352.356 105.782 352.98 105.782C353.604 105.782 354.132 105.608 354.564 105.26C354.996 104.9 355.212 104.402 355.212 103.766C355.212 103.106 355.002 102.608 354.582 102.272C354.162 101.936 353.628 101.768 352.98 101.768ZM352.98 111.632C353.784 111.632 354.426 111.446 354.906 111.074C355.398 110.69 355.644 110.144 355.644 109.436C355.644 108.74 355.398 108.206 354.906 107.834C354.426 107.45 353.784 107.258 352.98 107.258C352.188 107.258 351.546 107.45 351.054 107.834C350.574 108.206 350.334 108.74 350.334 109.436C350.334 110.144 350.574 110.69 351.054 111.074C351.546 111.446 352.188 111.632 352.98 111.632ZM361.461 105.746C360.645 105.746 359.967 105.476 359.427 104.936C358.887 104.396 358.617 103.736 358.617 102.956C358.617 102.188 358.887 101.534 359.427 100.994C359.979 100.442 360.657 100.166 361.461 100.166C362.277 100.166 362.955 100.436 363.495 100.976C364.035 101.516 364.305 102.176 364.305 102.956C364.305 103.736 364.035 104.396 363.495 104.936C362.967 105.476 362.289 105.746 361.461 105.746ZM360.417 104.018C360.693 104.294 361.041 104.432 361.461 104.432C361.881 104.432 362.223 104.288 362.487 104C362.763 103.712 362.901 103.364 362.901 102.956C362.901 102.548 362.763 102.206 362.487 101.93C362.223 101.642 361.881 101.498 361.461 101.498C361.041 101.498 360.693 101.642 360.417 101.93C360.153 102.206 360.021 102.548 360.021 102.956C360.021 103.376 360.153 103.73 360.417 104.018ZM359.463 111.218L367.833 101.858L368.715 102.344L360.327 111.722L359.463 111.218ZM368.931 112.406C368.391 112.946 367.713 113.216 366.897 113.216C366.081 113.216 365.403 112.946 364.863 112.406C364.323 111.866 364.053 111.206 364.053 110.426C364.053 109.646 364.323 108.986 364.863 108.446C365.403 107.906 366.081 107.636 366.897 107.636C367.713 107.636 368.391 107.906 368.931 108.446C369.471 108.986 369.741 109.646 369.741 110.426C369.741 111.206 369.471 111.866 368.931 112.406ZM365.853 111.47C366.129 111.746 366.477 111.884 366.897 111.884C367.317 111.884 367.659 111.746 367.923 111.47C368.199 111.182 368.337 110.834 368.337 110.426C368.337 110.018 368.199 109.676 367.923 109.4C367.659 109.112 367.317 108.968 366.897 108.968C366.477 108.968 366.129 109.112 365.853 109.4C365.589 109.676 365.457 110.018 365.457 110.426C365.457 110.834 365.589 111.182 365.853 111.47Z" fill="white"/>
<path d="M348.564 309.4H350.004V322H348.348V311.2L345.666 311.992L345.252 310.552L348.564 309.4ZM360.596 313.396C360.596 314.368 360.338 315.214 359.822 315.934H359.84L355.772 322H353.882L356.87 317.59C356.606 317.614 356.402 317.626 356.258 317.626C354.986 317.626 353.942 317.236 353.126 316.456C352.322 315.664 351.92 314.644 351.92 313.396C351.92 312.148 352.322 311.134 353.126 310.354C353.942 309.562 354.986 309.166 356.258 309.166C357.53 309.166 358.568 309.562 359.372 310.354C360.188 311.134 360.596 312.148 360.596 313.396ZM354.314 311.488C353.822 311.968 353.576 312.604 353.576 313.396C353.576 314.188 353.822 314.83 354.314 315.322C354.818 315.802 355.466 316.042 356.258 316.042C357.05 316.042 357.692 315.802 358.184 315.322C358.688 314.83 358.94 314.188 358.94 313.396C358.94 312.604 358.694 311.968 358.202 311.488C357.71 311.008 357.062 310.768 356.258 310.768C355.466 310.768 354.818 311.008 354.314 311.488ZM360.766 322.198C360.442 322.198 360.166 322.084 359.938 321.856C359.71 321.628 359.596 321.352 359.596 321.028C359.596 320.704 359.71 320.428 359.938 320.2C360.166 319.972 360.442 319.858 360.766 319.858C361.102 319.858 361.378 319.972 361.594 320.2C361.822 320.428 361.936 320.704 361.936 321.028C361.936 321.352 361.822 321.628 361.594 321.856C361.378 322.084 361.102 322.198 360.766 322.198ZM363.613 322V320.632L368.059 316.096C369.247 314.908 369.841 313.888 369.841 313.036C369.841 312.328 369.625 311.776 369.193 311.38C368.761 310.984 368.233 310.786 367.609 310.786C366.421 310.786 365.557 311.35 365.017 312.478L363.613 311.65C364.009 310.834 364.555 310.216 365.251 309.796C365.959 309.376 366.739 309.166 367.591 309.166C368.647 309.166 369.565 309.514 370.345 310.21C371.125 310.906 371.515 311.842 371.515 313.018C371.515 314.29 370.765 315.676 369.265 317.176L366.043 320.38H371.749V322H363.613ZM376.115 314.746C375.299 314.746 374.621 314.476 374.081 313.936C373.541 313.396 373.271 312.736 373.271 311.956C373.271 311.188 373.541 310.534 374.081 309.994C374.633 309.442 375.311 309.166 376.115 309.166C376.931 309.166 377.609 309.436 378.149 309.976C378.689 310.516 378.959 311.176 378.959 311.956C378.959 312.736 378.689 313.396 378.149 313.936C377.621 314.476 376.943 314.746 376.115 314.746ZM375.071 313.018C375.347 313.294 375.695 313.432 376.115 313.432C376.535 313.432 376.877 313.288 377.141 313C377.417 312.712 377.555 312.364 377.555 311.956C377.555 311.548 377.417 311.206 377.141 310.93C376.877 310.642 376.535 310.498 376.115 310.498C375.695 310.498 375.347 310.642 375.071 310.93C374.807 311.206 374.675 311.548 374.675 311.956C374.675 312.376 374.807 312.73 375.071 313.018ZM374.117 320.218L382.487 310.858L383.369 311.344L374.981 320.722L374.117 320.218ZM383.585 321.406C383.045 321.946 382.367 322.216 381.551 322.216C380.735 322.216 380.057 321.946 379.517 321.406C378.977 320.866 378.707 320.206 378.707 319.426C378.707 318.646 378.977 317.986 379.517 317.446C380.057 316.906 380.735 316.636 381.551 316.636C382.367 316.636 383.045 316.906 383.585 317.446C384.125 317.986 384.395 318.646 384.395 319.426C384.395 320.206 384.125 320.866 383.585 321.406ZM380.507 320.47C380.783 320.746 381.131 320.884 381.551 320.884C381.971 320.884 382.313 320.746 382.577 320.47C382.853 320.182 382.991 319.834 382.991 319.426C382.991 319.018 382.853 318.676 382.577 318.4C382.313 318.112 381.971 317.968 381.551 317.968C381.131 317.968 380.783 318.112 380.507 318.4C380.243 318.676 380.111 319.018 380.111 319.426C380.111 319.834 380.243 320.182 380.507 320.47Z" fill="white"/>
<path d="M173.564 379.4H175.004V392H173.348V381.2L170.666 381.992L170.252 380.552L173.564 379.4ZM183.76 385.484C184.372 385.796 184.852 386.216 185.2 386.744C185.548 387.272 185.722 387.872 185.722 388.544C185.722 389.696 185.32 390.602 184.516 391.262C183.712 391.91 182.674 392.234 181.402 392.234C180.142 392.234 179.11 391.91 178.306 391.262C177.502 390.602 177.1 389.696 177.1 388.544C177.1 387.872 177.274 387.272 177.622 386.744C177.97 386.216 178.45 385.796 179.062 385.484C178.03 384.836 177.514 383.918 177.514 382.73C177.514 381.59 177.892 380.714 178.648 380.102C179.416 379.478 180.334 379.166 181.402 379.166C182.482 379.166 183.4 379.478 184.156 380.102C184.924 380.714 185.308 381.59 185.308 382.73C185.308 383.918 184.792 384.836 183.76 385.484ZM181.402 380.768C180.766 380.768 180.232 380.936 179.8 381.272C179.38 381.608 179.17 382.106 179.17 382.766C179.17 383.402 179.386 383.9 179.818 384.26C180.25 384.608 180.778 384.782 181.402 384.782C182.026 384.782 182.554 384.608 182.986 384.26C183.418 383.9 183.634 383.402 183.634 382.766C183.634 382.106 183.424 381.608 183.004 381.272C182.584 380.936 182.05 380.768 181.402 380.768ZM181.402 390.632C182.206 390.632 182.848 390.446 183.328 390.074C183.82 389.69 184.066 389.144 184.066 388.436C184.066 387.74 183.82 387.206 183.328 386.834C182.848 386.45 182.206 386.258 181.402 386.258C180.61 386.258 179.968 386.45 179.476 386.834C178.996 387.206 178.756 387.74 178.756 388.436C178.756 389.144 178.996 389.69 179.476 390.074C179.968 390.446 180.61 390.632 181.402 390.632ZM188.578 392.198C188.254 392.198 187.978 392.084 187.75 391.856C187.522 391.628 187.408 391.352 187.408 391.028C187.408 390.704 187.522 390.428 187.75 390.2C187.978 389.972 188.254 389.858 188.578 389.858C188.914 389.858 189.19 389.972 189.406 390.2C189.634 390.428 189.748 390.704 189.748 391.028C189.748 391.352 189.634 391.628 189.406 391.856C189.19 392.084 188.914 392.198 188.578 392.198ZM200.839 388.04V389.606H199.309V392H197.635V389.606H191.209V388.04L195.727 379.4H197.527L193.009 388.04H197.635V384.476H199.309V388.04H200.839ZM204.156 384.746C203.34 384.746 202.662 384.476 202.122 383.936C201.582 383.396 201.312 382.736 201.312 381.956C201.312 381.188 201.582 380.534 202.122 379.994C202.674 379.442 203.352 379.166 204.156 379.166C204.972 379.166 205.65 379.436 206.19 379.976C206.73 380.516 207 381.176 207 381.956C207 382.736 206.73 383.396 206.19 383.936C205.662 384.476 204.984 384.746 204.156 384.746ZM203.112 383.018C203.388 383.294 203.736 383.432 204.156 383.432C204.576 383.432 204.918 383.288 205.182 383C205.458 382.712 205.596 382.364 205.596 381.956C205.596 381.548 205.458 381.206 205.182 380.93C204.918 380.642 204.576 380.498 204.156 380.498C203.736 380.498 203.388 380.642 203.112 380.93C202.848 381.206 202.716 381.548 202.716 381.956C202.716 382.376 202.848 382.73 203.112 383.018ZM202.158 390.218L210.528 380.858L211.41 381.344L203.022 390.722L202.158 390.218ZM211.626 391.406C211.086 391.946 210.408 392.216 209.592 392.216C208.776 392.216 208.098 391.946 207.558 391.406C207.018 390.866 206.748 390.206 206.748 389.426C206.748 388.646 207.018 387.986 207.558 387.446C208.098 386.906 208.776 386.636 209.592 386.636C210.408 386.636 211.086 386.906 211.626 387.446C212.166 387.986 212.436 388.646 212.436 389.426C212.436 390.206 212.166 390.866 211.626 391.406ZM208.548 390.47C208.824 390.746 209.172 390.884 209.592 390.884C210.012 390.884 210.354 390.746 210.618 390.47C210.894 390.182 211.032 389.834 211.032 389.426C211.032 389.018 210.894 388.676 210.618 388.4C210.354 388.112 210.012 387.968 209.592 387.968C209.172 387.968 208.824 388.112 208.548 388.4C208.284 388.676 208.152 389.018 208.152 389.426C208.152 389.834 208.284 390.182 208.548 390.47Z" fill="white"/>
<path d="M43.564 254.4H45.004V267H43.348V256.2L40.666 256.992L40.252 255.552L43.564 254.4ZM46.74 254.4H54.606V255.894L50.016 267H48.27L52.824 255.984H46.74V254.4ZM54.7112 267.198C54.3872 267.198 54.1112 267.084 53.8832 266.856C53.6552 266.628 53.5412 266.352 53.5412 266.028C53.5412 265.704 53.6552 265.428 53.8832 265.2C54.1112 264.972 54.3872 264.858 54.7112 264.858C55.0472 264.858 55.3232 264.972 55.5392 265.2C55.7672 265.428 55.8812 265.704 55.8812 266.028C55.8812 266.352 55.7672 266.628 55.5392 266.856C55.3232 267.084 55.0472 267.198 54.7112 267.198ZM61.7522 258.756C63.0122 258.756 64.0502 259.152 64.8662 259.944C65.6822 260.724 66.0902 261.738 66.0902 262.986C66.0902 264.234 65.6822 265.254 64.8662 266.046C64.0502 266.838 63.0122 267.234 61.7522 267.234C60.4802 267.234 59.4362 266.838 58.6202 266.046C57.8162 265.254 57.4142 264.234 57.4142 262.986C57.4142 262.014 57.6662 261.174 58.1702 260.466L62.2202 254.4H64.1282L61.1582 258.792C61.4222 258.768 61.6202 258.756 61.7522 258.756ZM59.8082 264.912C60.3122 265.392 60.9602 265.632 61.7522 265.632C62.5442 265.632 63.1862 265.392 63.6782 264.912C64.1822 264.42 64.4342 263.778 64.4342 262.986C64.4342 262.194 64.1822 261.558 63.6782 261.078C63.1862 260.598 62.5442 260.358 61.7522 260.358C60.9482 260.358 60.3002 260.598 59.8082 261.078C59.3162 261.558 59.0702 262.194 59.0702 262.986C59.0702 263.778 59.3162 264.42 59.8082 264.912ZM69.8848 259.746C69.0688 259.746 68.3908 259.476 67.8508 258.936C67.3108 258.396 67.0408 257.736 67.0408 256.956C67.0408 256.188 67.3108 255.534 67.8508 254.994C68.4028 254.442 69.0808 254.166 69.8848 254.166C70.7008 254.166 71.3788 254.436 71.9188 254.976C72.4588 255.516 72.7288 256.176 72.7288 256.956C72.7288 257.736 72.4588 258.396 71.9188 258.936C71.3908 259.476 70.7128 259.746 69.8848 259.746ZM68.8408 258.018C69.1168 258.294 69.4648 258.432 69.8848 258.432C70.3048 258.432 70.6468 258.288 70.9108 258C71.1868 257.712 71.3248 257.364 71.3248 256.956C71.3248 256.548 71.1868 256.206 70.9108 255.93C70.6468 255.642 70.3048 255.498 69.8848 255.498C69.4648 255.498 69.1168 255.642 68.8408 255.93C68.5768 256.206 68.4448 256.548 68.4448 256.956C68.4448 257.376 68.5768 257.73 68.8408 258.018ZM67.8868 265.218L76.2568 255.858L77.1388 256.344L68.7508 265.722L67.8868 265.218ZM77.3548 266.406C76.8148 266.946 76.1368 267.216 75.3208 267.216C74.5048 267.216 73.8268 266.946 73.2868 266.406C72.7468 265.866 72.4768 265.206 72.4768 264.426C72.4768 263.646 72.7468 262.986 73.2868 262.446C73.8268 261.906 74.5048 261.636 75.3208 261.636C76.1368 261.636 76.8148 261.906 77.3548 262.446C77.8948 262.986 78.1648 263.646 78.1648 264.426C78.1648 265.206 77.8948 265.866 77.3548 266.406ZM74.2768 265.47C74.5528 265.746 74.9008 265.884 75.3208 265.884C75.7408 265.884 76.0828 265.746 76.3468 265.47C76.6228 265.182 76.7608 264.834 76.7608 264.426C76.7608 264.018 76.6228 263.676 76.3468 263.4C76.0828 263.112 75.7408 262.968 75.3208 262.968C74.9008 262.968 74.5528 263.112 74.2768 263.4C74.0128 263.676 73.8808 264.018 73.8808 264.426C73.8808 264.834 74.0128 265.182 74.2768 265.47Z" fill="white"/>
<path d="M82.18 124.396C82.18 125.368 81.922 126.214 81.406 126.934H81.424L77.356 133H75.466L78.454 128.59C78.19 128.614 77.986 128.626 77.842 128.626C76.57 128.626 75.526 128.236 74.71 127.456C73.906 126.664 73.504 125.644 73.504 124.396C73.504 123.148 73.906 122.134 74.71 121.354C75.526 120.562 76.57 120.166 77.842 120.166C79.114 120.166 80.152 120.562 80.956 121.354C81.772 122.134 82.18 123.148 82.18 124.396ZM75.898 122.488C75.406 122.968 75.16 123.604 75.16 124.396C75.16 125.188 75.406 125.83 75.898 126.322C76.402 126.802 77.05 127.042 77.842 127.042C78.634 127.042 79.276 126.802 79.768 126.322C80.272 125.83 80.524 125.188 80.524 124.396C80.524 123.604 80.278 122.968 79.786 122.488C79.294 122.008 78.646 121.768 77.842 121.768C77.05 121.768 76.402 122.008 75.898 122.488ZM86.5195 125.746C85.7035 125.746 85.0255 125.476 84.4855 124.936C83.9455 124.396 83.6755 123.736 83.6755 122.956C83.6755 122.188 83.9455 121.534 84.4855 120.994C85.0375 120.442 85.7155 120.166 86.5195 120.166C87.3355 120.166 88.0135 120.436 88.5535 120.976C89.0935 121.516 89.3635 122.176 89.3635 122.956C89.3635 123.736 89.0935 124.396 88.5535 124.936C88.0255 125.476 87.3475 125.746 86.5195 125.746ZM85.4755 124.018C85.7515 124.294 86.0995 124.432 86.5195 124.432C86.9395 124.432 87.2815 124.288 87.5455 124C87.8215 123.712 87.9595 123.364 87.9595 122.956C87.9595 122.548 87.8215 122.206 87.5455 121.93C87.2815 121.642 86.9395 121.498 86.5195 121.498C86.0995 121.498 85.7515 121.642 85.4755 121.93C85.2115 122.206 85.0795 122.548 85.0795 122.956C85.0795 123.376 85.2115 123.73 85.4755 124.018ZM84.5215 131.218L92.8915 121.858L93.7735 122.344L85.3855 131.722L84.5215 131.218ZM93.9895 132.406C93.4495 132.946 92.7715 133.216 91.9555 133.216C91.1395 133.216 90.4615 132.946 89.9215 132.406C89.3815 131.866 89.1115 131.206 89.1115 130.426C89.1115 129.646 89.3815 128.986 89.9215 128.446C90.4615 127.906 91.1395 127.636 91.9555 127.636C92.7715 127.636 93.4495 127.906 93.9895 128.446C94.5295 128.986 94.7995 129.646 94.7995 130.426C94.7995 131.206 94.5295 131.866 93.9895 132.406ZM90.9115 131.47C91.1875 131.746 91.5355 131.884 91.9555 131.884C92.3755 131.884 92.7175 131.746 92.9815 131.47C93.2575 131.182 93.3955 130.834 93.3955 130.426C93.3955 130.018 93.2575 129.676 92.9815 129.4C92.7175 129.112 92.3755 128.968 91.9555 128.968C91.5355 128.968 91.1875 129.112 90.9115 129.4C90.6475 129.676 90.5155 130.018 90.5155 130.426C90.5155 130.834 90.6475 131.182 90.9115 131.47Z" fill="white"/>
<path d="M133.324 65.4H141.19V66.894L136.6 78H134.854L139.408 66.984H133.324V65.4ZM145.658 70.746C144.842 70.746 144.164 70.476 143.624 69.936C143.084 69.396 142.814 68.736 142.814 67.956C142.814 67.188 143.084 66.534 143.624 65.994C144.176 65.442 144.854 65.166 145.658 65.166C146.474 65.166 147.152 65.436 147.692 65.976C148.232 66.516 148.502 67.176 148.502 67.956C148.502 68.736 148.232 69.396 147.692 69.936C147.164 70.476 146.486 70.746 145.658 70.746ZM144.614 69.018C144.89 69.294 145.238 69.432 145.658 69.432C146.078 69.432 146.42 69.288 146.684 69C146.96 68.712 147.098 68.364 147.098 67.956C147.098 67.548 146.96 67.206 146.684 66.93C146.42 66.642 146.078 66.498 145.658 66.498C145.238 66.498 144.89 66.642 144.614 66.93C144.35 67.206 144.218 67.548 144.218 67.956C144.218 68.376 144.35 68.73 144.614 69.018ZM143.66 76.218L152.03 66.858L152.912 67.344L144.524 76.722L143.66 76.218ZM153.128 77.406C152.588 77.946 151.91 78.216 151.094 78.216C150.278 78.216 149.6 77.946 149.06 77.406C148.52 76.866 148.25 76.206 148.25 75.426C148.25 74.646 148.52 73.986 149.06 73.446C149.6 72.906 150.278 72.636 151.094 72.636C151.91 72.636 152.588 72.906 153.128 73.446C153.668 73.986 153.938 74.646 153.938 75.426C153.938 76.206 153.668 76.866 153.128 77.406ZM150.05 76.47C150.326 76.746 150.674 76.884 151.094 76.884C151.514 76.884 151.856 76.746 152.12 76.47C152.396 76.182 152.534 75.834 152.534 75.426C152.534 75.018 152.396 74.676 152.12 74.4C151.856 74.112 151.514 73.968 151.094 73.968C150.674 73.968 150.326 74.112 150.05 74.4C149.786 74.676 149.654 75.018 149.654 75.426C149.654 75.834 149.786 76.182 150.05 76.47Z" fill="white"/>
<path d="M199.062 54.04V55.606H197.532V58H195.858V55.606H189.432V54.04L193.95 45.4H195.75L191.232 54.04H195.858V50.476H197.532V54.04H199.062ZM202.379 50.746C201.563 50.746 200.885 50.476 200.345 49.936C199.805 49.396 199.535 48.736 199.535 47.956C199.535 47.188 199.805 46.534 200.345 45.994C200.897 45.442 201.575 45.166 202.379 45.166C203.195 45.166 203.873 45.436 204.413 45.976C204.953 46.516 205.223 47.176 205.223 47.956C205.223 48.736 204.953 49.396 204.413 49.936C203.885 50.476 203.207 50.746 202.379 50.746ZM201.335 49.018C201.611 49.294 201.959 49.432 202.379 49.432C202.799 49.432 203.141 49.288 203.405 49C203.681 48.712 203.819 48.364 203.819 47.956C203.819 47.548 203.681 47.206 203.405 46.93C203.141 46.642 202.799 46.498 202.379 46.498C201.959 46.498 201.611 46.642 201.335 46.93C201.071 47.206 200.939 47.548 200.939 47.956C200.939 48.376 201.071 48.73 201.335 49.018ZM200.381 56.218L208.751 46.858L209.633 47.344L201.245 56.722L200.381 56.218ZM209.849 57.406C209.309 57.946 208.631 58.216 207.815 58.216C206.999 58.216 206.321 57.946 205.781 57.406C205.241 56.866 204.971 56.206 204.971 55.426C204.971 54.646 205.241 53.986 205.781 53.446C206.321 52.906 206.999 52.636 207.815 52.636C208.631 52.636 209.309 52.906 209.849 53.446C210.389 53.986 210.659 54.646 210.659 55.426C210.659 56.206 210.389 56.866 209.849 57.406ZM206.771 56.47C207.047 56.746 207.395 56.884 207.815 56.884C208.235 56.884 208.577 56.746 208.841 56.47C209.117 56.182 209.255 55.834 209.255 55.426C209.255 55.018 209.117 54.676 208.841 54.4C208.577 54.112 208.235 53.968 207.815 53.968C207.395 53.968 207.047 54.112 206.771 54.4C206.507 54.676 206.375 55.018 206.375 55.426C206.375 55.834 206.507 56.182 206.771 56.47Z" fill="white"/>
</svg>
