<svg width="190" height="59" viewBox="0 0 190 59" fill="none" xmlns="http://www.w3.org/2000/svg">
<path d="M11 15.093H0V16.093L1.27945 16.4129C1.70727 16.5198 2.01452 16.8944 2.03575 17.3349L4 58.093H17L37.9683 18.0203C38.6651 16.6886 37.6992 15.093 36.1962 15.093H24V16.093L25.6645 16.3704C26.3281 16.481 26.6954 17.2023 26.3945 17.804L15 40.593V19.093C15 16.8839 13.2091 15.093 11 15.093Z" fill="#BCBCBC"/>
<path fill-rule="evenodd" clip-rule="evenodd" d="M52.8405 38.09C56 38.09 73.5172 38.09 73.5172 38.09C74.5258 38.09 76.9465 36.2906 78.5603 29.0928C79.737 24.7607 77.4396 14.1016 67.9698 14.0973C58.5 14.093 61.5 14.0975 57.3793 14.0973C53.2586 14.0971 43 18.093 39.7284 36.0906C36.7665 58.1087 43.4691 58.0947 48.4838 58.0843C48.592 58.0841 48.6995 58.0839 48.806 58.0839H67.4655C69.4827 58.2505 73.5172 56.0845 73.5172 46.0875H72.5086C72.3405 46.754 71.8025 48.0869 70.9957 48.0869C70.9957 48.0869 56 48.0869 52.3362 48.0869C48.6724 48.0869 49.681 38.09 52.8405 38.09ZM54.5 30.0924H67C67.6667 29.4257 68.3 27.9925 67.5 25.5925C66.6094 22.9208 61.5 22.3425 59 23.5924C57 24.5923 54.5 26.0923 54.5 30.0924Z" fill="#BCBCBC"/>
<path fill-rule="evenodd" clip-rule="evenodd" d="M115.25 1.3176L131.93 1.8736L125.9 28.7572L124.437 28.4289L130.07 3.31243L118.791 2.93646L116.611 14.929L115.903 14.8367L115.9 14.8363L115.887 14.8347L115.834 14.8281C115.786 14.8223 115.714 14.8138 115.62 14.8033C115.431 14.7824 115.153 14.7535 114.8 14.7221C114.094 14.6594 113.089 14.5871 111.896 14.5494C109.505 14.4738 106.391 14.5385 103.443 15.0863L103.169 13.6116C106.266 13.0362 109.499 12.9729 111.944 13.0501C113.169 13.0889 114.204 13.1632 114.933 13.228C115.101 13.2429 115.253 13.2573 115.387 13.2707L117.101 3.84302L115.25 3.57247V1.3176ZM88.2006 25.5225C90.6061 20.5164 93.8434 17.5956 97.128 15.7191L97.872 17.0216C94.8274 18.761 91.8148 21.4644 89.5526 26.1722C87.2826 30.8963 85.7501 37.6773 85.7501 47.593C85.7501 48.2301 85.8261 48.8373 85.9683 49.4133L84.512 49.7727C84.3407 49.0785 84.2501 48.3506 84.2501 47.593C84.2501 37.5345 85.8029 30.5122 88.2006 25.5225ZM105.871 24.5532C103.47 25.6032 100.962 28.1057 99.7355 34.2401C98.7371 39.2319 98.5127 42.2453 98.8041 44.1682C98.9472 45.1128 99.2111 45.765 99.5475 46.2537C99.8836 46.7419 100.323 47.112 100.886 47.4499C101.887 48.0503 103.26 48.0851 104.612 47.5783C105.956 47.074 107.174 46.0684 107.829 44.7576C108.162 44.0928 108.675 42.4249 109.242 40.2043C109.801 38.0167 110.391 35.3745 110.889 32.8244C111.387 30.2707 111.788 27.8274 111.973 26.0321C112.065 25.1278 112.099 24.4228 112.072 23.9598C112.069 23.914 112.066 23.8728 112.062 23.8358C111.875 23.8304 111.68 23.8225 111.477 23.8143C109.913 23.751 107.892 23.6693 105.871 24.5532ZM111.657 22.3162C111.98 22.3305 112.264 22.343 112.5 22.343C113.091 22.343 113.342 22.8347 113.421 23.0426C113.514 23.2898 113.552 23.586 113.569 23.8708C113.604 24.4585 113.56 25.2614 113.465 26.1852C113.274 28.0462 112.863 30.5403 112.361 33.1116C111.859 35.6865 111.262 38.3568 110.695 40.5754C110.137 42.7612 109.588 44.5933 109.171 45.4284C108.326 47.1176 106.794 48.362 105.138 48.9828C103.49 49.6009 101.613 49.6357 100.114 48.7361C99.4272 48.324 98.804 47.8191 98.3119 47.1042C97.8202 46.3898 97.4904 45.5107 97.321 44.3929C96.9873 42.1908 97.2629 38.9541 98.2646 33.9459C99.5588 27.475 102.301 24.4775 105.27 23.1789C107.647 22.1392 110.106 22.2477 111.657 22.3162ZM124.554 34.7572L119.662 56.5708L119.386 56.7361C117.979 57.5805 115.956 57.9657 114.088 58.0301C112.229 58.0942 110.33 57.8467 109.165 57.2638C107.619 56.4909 106.773 55.3756 106.386 54.1874C106.336 54.0343 106.294 53.881 106.259 53.7281C104.238 56.2693 101.325 57.5916 98.3091 57.9143C94.504 58.3216 90.4656 57.1508 87.6938 54.7768L88.6695 53.6375C91.1035 55.7221 94.7226 56.7896 98.1495 56.4229C101.554 56.0585 104.698 54.2915 106.319 50.7787L107.736 51.2401C107.583 52.001 107.542 52.8927 107.812 53.7225C108.074 54.5256 108.645 55.327 109.835 55.9222C110.67 56.3393 112.271 56.5918 114.037 56.531C115.654 56.4752 117.247 56.1616 118.342 55.6007L123.091 34.4289L124.554 34.7572Z" fill="#BCBCBC"/>
<path d="M122 56C122 57.6569 120.657 59 119 59C117.343 59 116 57.6569 116 56C116 54.3431 117.343 53 119 53C120.657 53 122 54.3431 122 56Z" fill="#BCBCBC"/>
<path d="M133.745 3C133.745 4.65685 132.401 6 130.745 6C129.088 6 127.745 4.65685 127.745 3C127.745 1.34315 129.088 0 130.745 0C132.401 0 133.745 1.34315 133.745 3Z" fill="#BCBCBC"/>
<path fill-rule="evenodd" clip-rule="evenodd" d="M124.5 34.093C125.881 34.093 127 32.9737 127 31.593C127 30.2123 125.881 29.093 124.5 29.093C123.119 29.093 122 30.2123 122 31.593C122 32.9737 123.119 34.093 124.5 34.093ZM124.5 35.093C126.433 35.093 128 33.526 128 31.593C128 29.66 126.433 28.093 124.5 28.093C122.567 28.093 121 29.66 121 31.593C121 33.526 122.567 35.093 124.5 35.093Z" fill="#BCBCBC"/>
<path fill-rule="evenodd" clip-rule="evenodd" d="M85.5 55.093C86.8807 55.093 88 53.9737 88 52.593C88 51.2123 86.8807 50.093 85.5 50.093C84.1193 50.093 83 51.2123 83 52.593C83 53.9737 84.1193 55.093 85.5 55.093ZM85.5 56.093C87.433 56.093 89 54.526 89 52.593C89 50.66 87.433 49.093 85.5 49.093C83.567 49.093 82 50.66 82 52.593C82 54.526 83.567 56.093 85.5 56.093Z" fill="#BCBCBC"/>
<path fill-rule="evenodd" clip-rule="evenodd" d="M100.5 18.093C101.881 18.093 103 16.9737 103 15.593C103 14.2123 101.881 13.093 100.5 13.093C99.1193 13.093 98 14.2123 98 15.593C98 16.9737 99.1193 18.093 100.5 18.093ZM100.5 19.093C102.433 19.093 104 17.526 104 15.593C104 13.66 102.433 12.093 100.5 12.093C98.567 12.093 97 13.66 97 15.593C97 17.526 98.567 19.093 100.5 19.093Z" fill="#BCBCBC"/>
<path d="M90 31.093C90 32.7499 88.6569 34.093 87 34.093C85.3431 34.093 84 32.7499 84 31.093C84 29.4362 85.3431 28.093 87 28.093C88.6569 28.093 90 29.4362 90 31.093Z" fill="#BCBCBC"/>
<path d="M152.719 4.91435H141.781C141.322 4.91435 140.922 5.22664 140.811 5.67181L139.311 11.6718C139.153 12.303 139.63 12.9143 140.281 12.9143H151.219C151.678 12.9143 152.078 12.602 152.189 12.1569L153.689 6.15688C153.847 5.52573 153.37 4.91435 152.719 4.91435Z" fill="#BCBCBC"/>
<path d="M148.954 15.9143H136L135.5 16.9143H136.742C137.385 16.9143 137.861 17.5132 137.716 18.1401L129.068 55.4629C128.778 56.7166 129.73 57.9143 131.016 57.9143H144V56.9143H142.773C142.125 56.9143 141.648 56.3071 141.802 55.6774L150.897 18.3883C151.204 17.1288 150.25 15.9143 148.954 15.9143Z" fill="#BCBCBC"/>
<path d="M185 24.9143C189 24.5143 190 18.7477 190 15.9143H170C166 15.9143 161.5 18.9143 159.5 28.9143C157.862 37.1044 166.5 39.9143 170.5 40.9143C174.5 41.9143 176.5 41.9143 177 44.9143C177.5 47.9143 174.5 49.9143 172 49.9143H157L156 46.9143H155L153.5 54.9143C153.5 56.9143 155.167 57.7477 156 57.9143H178C184 57.1143 187.167 51.581 188 48.9143C190 38.5143 187 35.6286 183 33.9143C179 32.2001 173.5 30.9143 171 29.9143C168.5 28.9143 169 24.9143 172 24.9143H185Z" fill="#BCBCBC"/>
</svg>
