<svg width="178" height="140" viewBox="0 0 178 140" fill="none" xmlns="http://www.w3.org/2000/svg">
<path d="M1 1L57.5807 11.7362M1 1L35.157 28.7571M1 1L20.5556 100.507L28.3778 102.863M57.5807 11.7362L90.4341 3.35674L115.465 27.186M57.5807 11.7362L86.7837 27.186M115.465 27.186L138.41 25.0911M115.465 27.186H86.7837M138.41 25.0911L177 19.3302M138.41 25.0911L126.938 37.3985M177 19.3302L149.361 124.074C135.977 124.074 122.592 124.074 109.207 124.074M177 19.3302L126.938 37.3985M109.207 124.074L74.7896 139M109.207 124.074L126.938 37.3985M74.7896 139L84.1763 57.038M74.7896 139L49.7585 113.338M84.1763 57.038L126.938 37.3985M84.1763 57.038L54.9733 43.4213M54.9733 43.4213L86.7837 27.186M54.9733 43.4213L35.157 28.7571M54.9733 43.4213L49.7585 113.338M35.157 28.7571L28.3778 102.863M49.7585 113.338L28.3778 102.863" stroke="#E1E2E7"/>
</svg>
