<svg width="72" height="129" viewBox="0 0 72 129" fill="none" xmlns="http://www.w3.org/2000/svg">
<path d="M50.8305 1L59.5311 3.76947L71 56.785M50.8305 1L31.0565 14.8474L4.9548 61.1371M50.8305 1L33.8249 40.9595M71 56.785L41.7345 80.919M71 56.785L59.3181 107.427M25.9153 128L56.7627 118.505L59.3181 107.427M25.9153 128L1 101.492M25.9153 128L33.8249 114.153M1 101.492L4.9548 61.1371M1 101.492L33.8249 114.153M4.9548 61.1371L33.8249 40.9595M33.8249 40.9595L41.7345 80.919M41.7345 80.919L33.8249 114.153M33.8249 114.153L59.3181 107.427" stroke="#E1E2E7"/>
</svg>
